<svg aria-hidden="true" style="width:0;height:0;position:absolute;overflow:hidden" xmlns="http://www.w3.org/2000/svg"><defs><symbol id="icon-close" viewBox="0 0 32 32"><path d="M19.141 16.123 29.817 5.455a2.196 2.196 0 0 0-3.098-3.095L16.043 12.918 5.301 2.184a2.202 2.202 0 0 0-2.983.115 2.193 2.193 0 0 0-.115 2.98l10.72 10.844L2.422 26.484a2.203 2.203 0 0 0-.767 1.582c-.012.302.039.604.15.885.11.282.278.538.492.751s.47.381.752.492a2.203 2.203 0 0 0 2.47-.615l10.479-10.471 10.413 10.405a2.202 2.202 0 0 0 2.983-.115 2.194 2.194 0 0 0 .115-2.979L19.14 16.124z"/></symbol><symbol id="icon-menu" viewBox="0 0 32 32"><path d="M2.666 8A1.335 1.335 0 0 1 4 6.666h24A1.33 1.33 0 0 1 29.333 8 1.333 1.333 0 0 1 28 9.334H4A1.335 1.335 0 0 1 2.666 8zm0 8.043A1.33 1.33 0 0 1 4 14.71h24a1.333 1.333 0 1 1 0 2.666H4a1.333 1.333 0 0 1-1.334-1.333zM4 22.752a1.337 1.337 0 0 0-1.334 1.333A1.33 1.33 0 0 0 4 25.418h24a1.333 1.333 0 1 0 0-2.666H4z"/></symbol><symbol id="icon-next" viewBox="0 0 18 32"><path d="M17.653 15.035 2.792.875a1.334 1.334 0 0 0-1.84 0L.936.891a1.222 1.222 0 0 0-.282 1.373c.065.153.162.291.282.405l13.995 13.333L.936 29.33a1.212 1.212 0 0 0-.381.889 1.236 1.236 0 0 0 .381.889l.016.016a1.334 1.334 0 0 0 1.84 0l14.861-14.16a1.331 1.331 0 0 0 0-1.93z"/></symbol><symbol id="icon-prev" viewBox="0 0 18 32"><path d="m.48 16.965 14.861 14.16a1.334 1.334 0 0 0 1.84 0l.016-.016a1.237 1.237 0 0 0 .382-.889 1.22 1.22 0 0 0-.382-.889L3.202 15.998 17.197 2.67a1.222 1.222 0 0 0 .282-1.373 1.231 1.231 0 0 0-.282-.405l-.016-.016a1.336 1.336 0 0 0-1.84 0L.48 15.036a1.331 1.331 0 0 0 0 1.93z"/></symbol><symbol id="icon-photo-modal" viewBox="0 0 18 18"><path d="m13.996 11.123-1.838-.21a1.44 1.44 0 0 0-1.187.412l-1.332 1.332a10.888 10.888 0 0 1-4.769-4.77L6.21 6.55a1.44 1.44 0 0 0 .412-1.187l-.21-1.824a1.448 1.448 0 0 0-1.44-1.28H3.72c-.818 0-1.498.68-1.448 1.497.384 6.18 5.327 11.116 11.5 11.5.817.05 1.498-.63 1.498-1.448v-1.252a1.434 1.434 0 0 0-1.274-1.432Z"/></symbol><symbol id="icon-person-modal" viewBox="0 0 18 18"><path d="M9 9a3 3 0 1 0 0-6 3 3 0 1 0 0 6Zm0 1.5c-2.003 0-6 1.005-6 3v.75c0 .412.337.75.75.75h10.5c.412 0 .75-.338.75-.75v-.75c0-1.995-3.998-3-6-3Z"/></symbol><symbol id="icon-email-modal" viewBox="0 0 18 18"><path d="M15 3H3c-.825 0-1.492.675-1.492 1.5l-.008 9c0 .825.675 1.5 1.5 1.5h12c.825 0 1.5-.675 1.5-1.5v-9c0-.825-.675-1.5-1.5-1.5Zm-.3 3.188L9.398 9.502a.759.759 0 0 1-.796 0L3.3 6.188a.637.637 0 1 1 .675-1.08L9 8.25l5.025-3.143a.637.637 0 1 1 .675 1.08Z"/></symbol><symbol id="icon-error-validation" viewBox="0 0 12 12"><path d="M6 4.286v2.571M6 9.857A.429.429 0 1 0 6 9a.429.429 0 0 0 0 .857Z" stroke="#FF705D" stroke-width=".857" stroke-linecap="round" stroke-linejoin="round"/><path d="M6.763.9a.857.857 0 0 0-1.525 0L.523 10.328a.857.857 0 0 0 .763 1.243h9.429a.857.857 0 0 0 .763-1.242L6.763.899Z" stroke="#FF705D" stroke-width=".857" stroke-linecap="round" stroke-linejoin="round"/></symbol><symbol id="icon-touch-app" viewBox="0 0 48 48" fill="none"><path d="M23.5 9.333c2.023 0 3.75.706 5.184 2.117 1.433 1.411 2.15 3.128 2.15 5.15 0 1.155-.25 2.244-.75 3.267a7.368 7.368 0 0 1-2.117 2.6h-1.133V20.8a5.149 5.149 0 0 0 1.483-1.867 5.42 5.42 0 0 0 .517-2.333c0-1.467-.523-2.711-1.567-3.733-1.044-1.023-2.3-1.534-3.767-1.534-1.466 0-2.722.511-3.766 1.534-1.045 1.022-1.567 2.266-1.567 3.733 0 .822.172 1.6.517 2.333a5.149 5.149 0 0 0 1.483 1.867v2.4a7.25 7.25 0 0 1-2.933-2.733 7.342 7.342 0 0 1-1.067-3.867c0-2.022.717-3.739 2.15-5.15 1.433-1.411 3.161-2.117 5.183-2.117Zm-1.266 28c-.378 0-.734-.072-1.067-.216a2.766 2.766 0 0 1-.867-.584l-6.866-6.866 1.866-1.934c.311-.31.661-.55 1.05-.716a1.827 1.827 0 0 1 1.217-.084l2.6.6V16.667c0-.934.322-1.723.967-2.367.644-.645 1.433-.967 2.366-.967.934 0 1.723.322 2.367.967.644.644.967 1.433.967 2.367V22.4h.866c.111 0 .211.022.3.067.09.044.19.088.3.133l4.934 2.4c.533.244.927.639 1.183 1.183.255.545.328 1.106.217 1.684l-1.2 7.266a2.518 2.518 0 0 1-.934 1.584 2.692 2.692 0 0 1-1.733.616h-8.533Zm-.267-2h9.367l1.433-8.3-6.1-3.033h-1.833v-7.333c0-.4-.123-.723-.367-.967s-.567-.367-.967-.367-.722.123-.966.367c-.245.244-.367.567-.367.967v13.3l-5.133-1.1-.767.766 5.7 5.7Zm9.367 0h-9.367 9.367Z" fill="#7EB101"/></symbol><symbol id="icon-rocked-launch" viewBox="0 0 48 48"><path d="m14.233 21.633 3.534 1.5c.4-.8.827-1.588 1.283-2.366.456-.778.939-1.523 1.45-2.234L17.867 18l-3.634 3.633Zm5.134 2.7 4.433 4.434a26.195 26.195 0 0 0 3.567-1.967c1.11-.733 2.01-1.444 2.7-2.133 1.8-1.8 3.122-3.645 3.966-5.534.845-1.889 1.3-4.022 1.367-6.4-2.378.067-4.511.523-6.4 1.367-1.889.845-3.733 2.167-5.533 3.967-.69.689-1.4 1.589-2.134 2.7a26.195 26.195 0 0 0-1.966 3.566Zm7.633-3.2c-.444-.444-.667-.994-.667-1.65 0-.655.223-1.205.667-1.65.444-.444.994-.666 1.65-.666.656 0 1.206.222 1.65.666.444.445.667.995.667 1.65 0 .656-.223 1.206-.667 1.65-.444.445-.994.667-1.65.667-.656 0-1.206-.222-1.65-.667ZM26.5 33.9l3.633-3.633-.533-2.634c-.711.512-1.456.995-2.233 1.45-.778.456-1.567.884-2.367 1.284l1.5 3.533Zm10.867-23.133c.2 3.022-.178 5.777-1.134 8.266-.955 2.49-2.533 4.834-4.733 7.034l-.067.066-.066.067.733 3.667c.067.333.05.655-.05.966-.1.312-.272.59-.517.834l-5.7 5.733L23 30.8l-5.667-5.667-6.6-2.833 5.734-5.7c.244-.244.522-.417.833-.517.311-.1.633-.116.967-.05l3.666.734a.263.263 0 0 1 .067-.05.263.263 0 0 0 .067-.05c2.2-2.2 4.544-3.784 7.033-4.75 2.489-.967 5.244-1.35 8.267-1.15Zm-24.4 18.4c.777-.778 1.727-1.173 2.85-1.184 1.122-.01 2.072.373 2.85 1.15.777.778 1.16 1.728 1.15 2.85-.011 1.123-.406 2.073-1.184 2.85-.577.578-1.472 1.056-2.683 1.434-1.211.377-3.028.733-5.45 1.066.333-2.422.683-4.244 1.05-5.466.367-1.223.839-2.123 1.417-2.7Zm1.4 1.433c-.311.333-.59.856-.834 1.567-.244.71-.455 1.622-.633 2.733 1.111-.178 2.022-.389 2.733-.633.711-.245 1.234-.523 1.567-.834.422-.377.639-.85.65-1.416a2.026 2.026 0 0 0-.583-1.484 2.027 2.027 0 0 0-1.484-.583 1.875 1.875 0 0 0-1.416.65Z" fill="#7EB101"/></symbol><symbol id="icon-read-more-vector" viewBox="0 0 15 14"><path fill-rule="evenodd" d="M9.595 6.873a.395.395 0 0 1 0 .558L5.567 11.46a.395.395 0 0 1-.559 0l-.186-.186a.395.395 0 0 1 0-.56l3.562-3.561L4.822 3.59a.395.395 0 0 1 0-.559l.186-.186a.395.395 0 0 1 .56 0l4.027 4.028Z" clip-rule="evenodd"/></symbol><symbol id="icon-menu-burger" viewBox="0 0 32 32"><path d="M6.4 11.733V9.6h19.2v2.133H6.4zm0 5.334h19.2v-2.133H6.4v2.133zm0 5.333h19.2v-2.133H6.4V22.4z"/></symbol><symbol id="icon-menu-closer" viewBox="0 0 32 32"><path d="M23.733 10.304 22.229 8.8l-5.963 5.963L10.303 8.8l-1.504 1.504 5.963 5.963-5.963 5.963 1.504 1.504 5.963-5.963 5.963 5.963 1.504-1.504-5.963-5.963 5.963-5.963z"/></symbol><symbol id="icon-Vector" viewBox="0 0 18 32"><path d="m.48 16.965 14.861 14.16a1.334 1.334 0 0 0 1.84 0l.016-.016a1.237 1.237 0 0 0 .382-.889 1.22 1.22 0 0 0-.382-.889L3.202 15.998 17.197 2.67a1.222 1.222 0 0 0 .282-1.373 1.231 1.231 0 0 0-.282-.405l-.016-.016a1.336 1.336 0 0 0-1.84 0L.48 15.036a1.331 1.331 0 0 0 0 1.93z"/></symbol></defs></svg>